<?xml version="1.0" standalone="no"?>
<!DOCTYPE svg PUBLIC "-//W3C//DTD SVG 20010904//EN"
 "http://www.w3.org/TR/2001/REC-SVG-20010904/DTD/svg10.dtd">
<svg version="1.0" xmlns="http://www.w3.org/2000/svg"
 width="105.000000pt" height="174.000000pt" viewBox="0 0 105.000000 174.000000"
 preserveAspectRatio="xMidYMid meet">

<g transform="translate(0.000000,174.000000) scale(0.100000,-0.100000)"
fill="#000000" stroke="none">
<path d="M0 870 l0 -870 525 0 525 0 0 870 0 870 -525 0 -525 0 0 -870z m1010
10 l0 -830 -490 0 -490 0 0 830 0 830 490 0 490 0 0 -830z"/>
<path d="M60 1225 l0 -455 460 0 460 0 0 455 0 455 -460 0 -460 0 0 -455z
m480 361 c0 -7 -11 -44 -25 -80 -14 -37 -25 -71 -25 -76 0 -8 122 -70 136 -70
13 0 -1 29 -32 67 -20 25 -33 48 -28 52 9 9 237 109 267 118 14 4 17 -1 17
-31 0 -33 -4 -39 -35 -52 -20 -8 -61 -26 -91 -39 l-56 -25 31 -43 c30 -41 31
-45 21 -96 -20 -105 -78 -189 -161 -232 -39 -19 -42 -19 -60 -3 -40 36 -15 -5
66 -110 47 -60 85 -114 85 -118 0 -5 -19 -8 -42 -6 -40 3 -44 6 -140 132 -54
72 -98 133 -98 137 0 5 5 19 11 33 9 18 25 28 61 37 33 7 63 24 89 49 59 56
54 71 -43 115 -46 20 -85 39 -87 41 -5 4 59 185 72 202 13 17 67 16 67 -2z
m-220 -366 c22 -12 42 -64 33 -88 -19 -54 -84 -80 -124 -49 -44 34 -47 103 -6
132 25 17 70 20 97 5z m61 -152 c10 -13 18 -27 19 -31 0 -5 -21 -46 -47 -93
-46 -82 -47 -84 -85 -84 -21 0 -38 2 -38 5 0 9 122 225 127 225 2 0 13 -10 24
-22z"/>
<path d="M540 525 c0 -21 5 -25 30 -25 25 0 30 4 30 25 0 21 -5 25 -30 25 -25
0 -30 -4 -30 -25z"/>
<path d="M210 365 l0 -105 30 0 29 0 3 73 c3 64 5 72 23 72 18 0 20 -8 23 -72
l3 -73 29 0 29 0 3 73 c3 64 5 72 23 72 18 0 21 -8 25 -70 5 -68 6 -70 33 -73
l27 -3 0 75 c0 41 -4 86 -9 99 -13 33 -44 42 -79 24 -24 -12 -31 -12 -51 1
-20 13 -26 13 -54 0 -27 -13 -34 -13 -45 -2 -7 8 -19 14 -27 14 -12 0 -15 -20
-15 -105z"/>
<path d="M543 462 c-26 -4 -31 -30 -8 -38 12 -5 15 -24 15 -85 l0 -79 30 0 30
0 0 88 c0 108 -10 124 -67 114z"/>
<path d="M662 461 c-11 -7 -8 -17 13 -51 24 -38 26 -46 15 -64 -8 -12 -22 -36
-33 -53 l-19 -33 29 0 c21 0 33 7 43 25 7 14 17 25 21 25 5 0 16 -11 25 -25
16 -24 57 -34 68 -17 3 4 -9 29 -26 55 l-31 47 27 40 c15 23 24 45 21 50 -11
18 -33 11 -54 -16 l-21 -27 -21 27 c-21 27 -35 31 -57 17z"/>
</g>
</svg>
